<svg width="155" height="32" viewBox="0 0 155 32" fill="none" xmlns="http://www.w3.org/2000/svg">
<path fill-rule="evenodd" clip-rule="evenodd" d="M1.21919 0.100007C0.83466 0.240072 0.568784 0.441075 0.351308 0.756204C0.0795964 1.14996 0 1.53147 0 2.43973C0 3.57349 0.105851 3.73781 0.836268 3.73781C1.18317 3.73781 1.19067 3.74143 1.19091 3.90969C1.19139 4.3265 1.31938 6.15515 1.40202 6.92535C1.94693 12.0074 3.79741 16.9301 6.37176 20.1461L6.8235 20.7105L5.91531 24.2712C5.41577 26.2296 4.97873 27.9341 4.94408 28.0592C4.89175 28.2477 4.82609 28.3146 4.55807 28.4523C4.18854 28.642 3.90749 28.9495 3.72835 29.36C3.62542 29.5959 3.60047 29.7972 3.58243 30.539C3.5582 31.5365 3.60428 31.7503 3.8751 31.8974C4.12711 32.0342 20.877 32.0342 21.129 31.8974C21.3998 31.7503 21.4459 31.5365 21.4217 30.539C21.4036 29.7972 21.3787 29.5959 21.2757 29.36C21.0966 28.9495 20.8156 28.642 20.446 28.4523C20.178 28.3146 20.1123 28.2477 20.06 28.0592C20.0254 27.9341 19.5876 26.2288 19.0872 24.2693L18.1774 20.7068L18.4856 20.3318C21.1421 17.0996 23.0461 12.1106 23.6021 6.92535C23.6847 6.15515 23.8127 4.3265 23.8132 3.90969C23.8134 3.74112 23.8205 3.73781 24.1736 3.73781C24.3721 3.73781 24.6088 3.69706 24.701 3.64699C24.9714 3.50018 25.0178 3.28586 24.9949 2.2886C24.9758 1.45909 24.9622 1.36821 24.8082 1.0389C24.62 0.636578 24.3316 0.343011 23.9355 0.150633L23.6646 0.0190062L12.5913 0.00506855C2.19971 -0.00799414 1.49971 -0.00211905 1.21919 0.100007ZM23.4877 1.31246C23.7094 1.41846 23.8134 1.67315 23.8134 2.10966V2.48779H12.502H1.19067L1.19276 2.09716C1.19514 1.66609 1.27956 1.45028 1.49489 1.32502C1.69367 1.20934 23.2464 1.19702 23.4877 1.31246ZM22.6228 3.97862C22.6228 4.11113 22.6056 4.39238 22.5845 4.60363L22.5463 4.98783H18.8012C14.737 4.98783 14.8078 4.98195 14.6569 5.32983C14.5669 5.53708 14.5669 5.68859 14.6569 5.89584C14.8077 6.24347 14.7399 6.23784 18.7681 6.23784H22.4801L22.427 6.73548L22.3738 7.23317L21.4416 8.20225L20.5093 9.17138L19.6758 8.30143C18.8339 7.42261 18.6422 7.28011 18.3874 7.34336C18.3102 7.36255 17.8582 7.78261 17.383 8.27687L16.519 9.17551L15.7161 8.32525C15.2745 7.85755 14.8328 7.43824 14.7346 7.39336C14.3947 7.23805 14.2518 7.32742 13.3504 8.25862L12.502 9.13507L11.6537 8.25862C10.7523 7.32742 10.6094 7.23805 10.2695 7.39336C10.1713 7.43824 9.72963 7.85755 9.28801 8.32525L8.48508 9.17551L7.62107 8.27687C7.14587 7.78261 6.6939 7.36255 6.61674 7.34336C6.36188 7.28011 6.17024 7.42261 5.32825 8.30143L4.49478 9.17138L3.56255 8.20225L2.63025 7.23317L2.57709 6.73548L2.52399 6.23784H6.23025C8.97695 6.23784 9.97693 6.21853 10.0926 6.16316C10.2632 6.08153 10.4184 5.81946 10.4184 5.61283C10.4184 5.40621 10.2632 5.14414 10.0926 5.06251C9.97687 5.00714 8.96945 4.98783 6.19697 4.98783H2.45749L2.41992 4.6597C2.39926 4.47919 2.38212 4.19794 2.38188 4.03469L2.38134 3.73781H12.502H22.6228V3.97862ZM12.2109 5.07508C11.6948 5.37539 11.9108 6.23784 12.502 6.23784C12.8037 6.23784 13.0974 5.93253 13.0974 5.6189C13.0974 5.14964 12.6034 4.84664 12.2109 5.07508ZM7.2937 9.6797C7.71888 10.129 8.13913 10.5368 8.22754 10.586C8.5792 10.7816 8.65475 10.7358 9.59526 9.75627L10.4778 8.83713L11.3262 9.72002C11.8377 10.2523 12.2396 10.62 12.3383 10.6459C12.6539 10.7288 12.8165 10.6164 13.6779 9.72002L14.5263 8.83713L15.4088 9.75627C16.3332 10.719 16.4256 10.7777 16.7477 10.6062C16.8192 10.5681 17.2457 10.154 17.6955 9.68608L18.5132 8.83519L19.4048 9.76383L20.2965 10.6925L20.5463 10.6573C20.7663 10.6263 20.8696 10.5453 21.4118 9.97802C21.7504 9.6237 22.0274 9.36276 22.0274 9.39808C22.0274 9.45914 21.6144 11.1855 21.5051 11.5817L21.4533 11.7692H12.502H3.55082L3.49903 11.5817C3.38966 11.1855 2.97668 9.45914 2.97668 9.39808C2.97668 9.36276 3.25375 9.6237 3.59232 9.97802C4.1349 10.5457 4.23766 10.6263 4.45817 10.6573L4.70833 10.6926L5.58383 9.77833C6.0654 9.27545 6.47315 8.86376 6.48999 8.86344C6.50684 8.86313 6.86851 9.23045 7.2937 9.6797ZM21.0154 13.1068C21.0154 13.2166 20.474 14.5752 20.1256 15.3399C19.4838 16.7484 18.7084 18.0435 17.7822 19.2537L17.3159 19.863H12.5072H7.69858L7.38377 19.4724C6.49731 18.3725 5.74052 17.1413 5.03065 15.6442C4.57902 14.6918 3.98875 13.2543 3.98875 13.1068C3.98875 13.0736 7.48635 13.0504 12.502 13.0504C17.5178 13.0504 21.0154 13.0736 21.0154 13.1068ZM17.0468 21.1599C17.0618 21.1857 17.1419 21.467 17.2248 21.7849L17.3755 22.3631H12.502H7.62863L7.77931 21.7849C7.86218 21.467 7.94225 21.1857 7.95726 21.1599C7.97226 21.1341 10.0174 21.1131 12.502 21.1131C14.9867 21.1131 17.0318 21.1341 17.0468 21.1599ZM18.2528 25.8195C18.5574 27.0158 18.8231 28.0495 18.8434 28.1164C18.8797 28.2365 18.7963 28.2382 12.4997 28.2382C7.41997 28.2382 6.12499 28.2222 6.14744 28.16C6.16297 28.1171 6.42153 27.1116 6.72199 25.9256C7.0224 24.7397 7.27971 23.734 7.2937 23.6909C7.31388 23.6285 8.38733 23.6157 12.5091 23.6284L17.699 23.6443L18.2528 25.8195ZM19.9351 29.5772C20.155 29.6966 20.2414 29.9191 20.2414 30.3661V30.7382H12.502H4.76269L4.76477 30.3476C4.76715 29.9165 4.85157 29.7007 5.0669 29.5754C5.28694 29.4474 19.6991 29.4491 19.9351 29.5772Z" fill="#024FDE"/>
<path d="M33 22.168V5.36801H36.168V19.288H43.848V22.168H33Z" fill="#024FDE"/>
<path d="M51.5278 22.504C50.3438 22.504 49.2958 22.256 48.3838 21.76C47.4878 21.248 46.7838 20.536 46.2718 19.624C45.7758 18.696 45.5278 17.608 45.5278 16.36V16.072C45.5278 14.824 45.7758 13.744 46.2718 12.832C46.7678 11.904 47.4638 11.192 48.3598 10.696C49.2558 10.184 50.2958 9.92801 51.4798 9.92801C52.6478 9.92801 53.6638 10.192 54.5278 10.72C55.3918 11.232 56.0638 11.952 56.5438 12.88C57.0238 13.792 57.2638 14.856 57.2638 16.072V17.104H48.5998C48.6318 17.92 48.9358 18.584 49.5118 19.096C50.0878 19.608 50.7918 19.864 51.6238 19.864C52.4718 19.864 53.0958 19.68 53.4958 19.312C53.8958 18.944 54.1998 18.536 54.4078 18.088L56.8798 19.384C56.6558 19.8 56.3278 20.256 55.8958 20.752C55.4798 21.232 54.9198 21.648 54.2158 22C53.5118 22.336 52.6158 22.504 51.5278 22.504ZM48.6238 14.848H54.1918C54.1278 14.16 53.8478 13.608 53.3518 13.192C52.8718 12.776 52.2398 12.568 51.4558 12.568C50.6398 12.568 49.9918 12.776 49.5118 13.192C49.0318 13.608 48.7358 14.16 48.6238 14.848Z" fill="#024FDE"/>
<path d="M64.8994 22.504C63.3474 22.504 62.0754 22.168 61.0834 21.496C60.0914 20.824 59.4914 19.864 59.2834 18.616L62.0674 17.896C62.1794 18.456 62.3634 18.896 62.6194 19.216C62.8914 19.536 63.2194 19.768 63.6034 19.912C64.0034 20.04 64.4354 20.104 64.8994 20.104C65.6034 20.104 66.1234 19.984 66.4594 19.744C66.7954 19.488 66.9634 19.176 66.9634 18.808C66.9634 18.44 66.8034 18.16 66.4834 17.968C66.1634 17.76 65.6514 17.592 64.9474 17.464L64.2754 17.344C63.4434 17.184 62.6834 16.968 61.9954 16.696C61.3074 16.408 60.7554 16.016 60.3394 15.52C59.9234 15.024 59.7154 14.384 59.7154 13.6C59.7154 12.416 60.1474 11.512 61.0114 10.888C61.8754 10.248 63.0114 9.92801 64.4194 9.92801C65.7474 9.92801 66.8514 10.224 67.7314 10.816C68.6114 11.408 69.1874 12.184 69.4594 13.144L66.6514 14.008C66.5234 13.4 66.2594 12.968 65.8594 12.712C65.4754 12.456 64.9954 12.328 64.4194 12.328C63.8434 12.328 63.4034 12.432 63.0994 12.64C62.7954 12.832 62.6434 13.104 62.6434 13.456C62.6434 13.84 62.8034 14.128 63.1234 14.32C63.4434 14.496 63.8754 14.632 64.4194 14.728L65.0914 14.848C65.9874 15.008 66.7954 15.224 67.5154 15.496C68.2514 15.752 68.8274 16.128 69.2434 16.624C69.6754 17.104 69.8914 17.76 69.8914 18.592C69.8914 19.84 69.4354 20.808 68.5234 21.496C67.6274 22.168 66.4194 22.504 64.8994 22.504Z" fill="#024FDE"/>
<path d="M71.2933 22.168L75.7093 5.36801H81.2293L85.6453 22.168H82.3813L81.4693 18.472H75.4693L74.5573 22.168H71.2933ZM76.2133 15.544H80.7253L78.6853 7.36001H78.2533L76.2133 15.544Z" fill="#024FDE"/>
<path d="M89.1109 22.168V12.76H86.0869V10.264H89.1109V8.05601C89.1109 7.24001 89.3509 6.59201 89.8309 6.11201C90.3269 5.61601 90.9669 5.36801 91.7509 5.36801H94.8709V7.86401H92.8069C92.3589 7.86401 92.1349 8.10401 92.1349 8.58401V10.264H95.2549V12.76H92.1349V22.168H89.1109Z" fill="#024FDE"/>
<path d="M97.596 22.168V10.264H100.572V11.608H101.004C101.18 11.128 101.468 10.776 101.868 10.552C102.284 10.328 102.764 10.216 103.308 10.216H104.748V12.904H103.26C102.492 12.904 101.86 13.112 101.364 13.528C100.868 13.928 100.62 14.552 100.62 15.4V22.168H97.596Z" fill="#024FDE"/>
<path d="M107.112 22.168V10.264H110.136V22.168H107.112ZM108.624 8.87201C108.08 8.87201 107.616 8.69601 107.232 8.34401C106.864 7.99201 106.68 7.52801 106.68 6.95201C106.68 6.37601 106.864 5.91201 107.232 5.56001C107.616 5.20801 108.08 5.03201 108.624 5.03201C109.184 5.03201 109.648 5.20801 110.016 5.56001C110.384 5.91201 110.568 6.37601 110.568 6.95201C110.568 7.52801 110.384 7.99201 110.016 8.34401C109.648 8.69601 109.184 8.87201 108.624 8.87201Z" fill="#024FDE"/>
<path d="M122.415 26.968V20.8H121.983C121.823 21.072 121.591 21.344 121.287 21.616C120.983 21.872 120.583 22.08 120.087 22.24C119.607 22.416 119.007 22.504 118.287 22.504C117.327 22.504 116.439 22.272 115.623 21.808C114.807 21.328 114.151 20.632 113.655 19.72C113.159 18.808 112.911 17.704 112.911 16.408V16.024C112.911 14.728 113.159 13.624 113.655 12.712C114.151 11.8 114.807 11.112 115.623 10.648C116.455 10.168 117.343 9.92801 118.287 9.92801C119.375 9.92801 120.199 10.112 120.759 10.48C121.335 10.832 121.759 11.24 122.031 11.704H122.463V10.264H125.439V26.968H122.415ZM119.199 19.864C120.143 19.864 120.919 19.568 121.527 18.976C122.151 18.368 122.463 17.488 122.463 16.336V16.096C122.463 14.944 122.151 14.072 121.527 13.48C120.903 12.872 120.127 12.568 119.199 12.568C118.271 12.568 117.495 12.872 116.871 13.48C116.247 14.072 115.935 14.944 115.935 16.096V16.336C115.935 17.488 116.247 18.368 116.871 18.976C117.495 19.568 118.271 19.864 119.199 19.864Z" fill="#024FDE"/>
<path d="M133.327 22.36C132.399 22.36 131.583 22.152 130.879 21.736C130.191 21.304 129.655 20.712 129.271 19.96C128.887 19.208 128.695 18.344 128.695 17.368V10.264H131.719V17.128C131.719 18.024 131.935 18.696 132.367 19.144C132.815 19.592 133.447 19.816 134.263 19.816C135.191 19.816 135.911 19.512 136.423 18.904C136.935 18.28 137.191 17.416 137.191 16.312V10.264H140.215V22.168H137.239V20.608H136.807C136.615 21.008 136.255 21.4 135.727 21.784C135.199 22.168 134.399 22.36 133.327 22.36Z" fill="#024FDE"/>
<path d="M149.004 22.504C147.82 22.504 146.772 22.256 145.86 21.76C144.964 21.248 144.26 20.536 143.748 19.624C143.252 18.696 143.004 17.608 143.004 16.36V16.072C143.004 14.824 143.252 13.744 143.748 12.832C144.244 11.904 144.94 11.192 145.836 10.696C146.732 10.184 147.772 9.92801 148.956 9.92801C150.124 9.92801 151.14 10.192 152.004 10.72C152.868 11.232 153.54 11.952 154.02 12.88C154.5 13.792 154.74 14.856 154.74 16.072V17.104H146.076C146.108 17.92 146.412 18.584 146.988 19.096C147.564 19.608 148.268 19.864 149.1 19.864C149.948 19.864 150.572 19.68 150.972 19.312C151.372 18.944 151.676 18.536 151.884 18.088L154.356 19.384C154.132 19.8 153.804 20.256 153.372 20.752C152.956 21.232 152.396 21.648 151.692 22C150.988 22.336 150.092 22.504 149.004 22.504ZM146.1 14.848H151.668C151.604 14.16 151.324 13.608 150.828 13.192C150.348 12.776 149.716 12.568 148.932 12.568C148.116 12.568 147.468 12.776 146.988 13.192C146.508 13.608 146.212 14.16 146.1 14.848Z" fill="#024FDE"/>
</svg>
