<svg width="267" height="661" viewBox="0 0 267 661" fill="none" xmlns="http://www.w3.org/2000/svg">
<path fill-rule="evenodd" clip-rule="evenodd" d="M147.568 83.5085C96.0674 114.574 51.9125 147.352 29.9856 170.795C22.3791 178.927 16.6358 187.198 15.3047 191.936C15.0068 192.996 14.4448 194.048 14.0561 194.272C13.6675 194.497 13.2234 195.017 13.0693 195.427C12.9155 195.838 10.1512 206.81 6.926 219.809C3.70134 232.809 0.887674 243.44 0.673069 243.433C0.210612 243.418 0.598505 245.742 1.24555 246.863C1.56056 247.408 1.47157 247.872 0.955683 248.372C-0.673665 249.952 -1.44848 249.047 31.1771 283.632C180.355 441.768 279.796 524.917 325.464 529.706L326.897 529.856L328.821 534.25C330.057 537.07 330.622 538.797 330.4 539.072C330.156 539.373 330.286 539.689 330.836 540.139C331.367 540.572 333.293 544.837 336.817 553.382C374.024 643.605 399.568 718.805 414.9 783.253C418.017 796.355 423.589 823.981 423.319 824.993C423.192 825.468 423.15 827.706 423.226 829.966C423.469 837.255 423.282 844.655 422.849 844.905C422.136 845.317 421.936 846.841 422.474 847.772C423.458 849.477 437.645 853.217 450.338 855.118C482.206 859.889 515.169 855.805 550.171 842.748C564.843 837.275 574.789 832.564 592.079 822.896C605.875 815.182 617.937 807.748 624.345 803.009C626.997 801.049 635.857 793.92 639.867 790.52C665.521 768.773 683.203 745.687 692.913 721.263C695.483 714.798 699.256 700.411 700.067 693.982C700.739 688.654 701.232 680.894 701.152 676.896C701.11 674.791 700.989 674.426 700.129 673.812C699.593 673.429 698.835 673.203 698.446 673.309C697.93 673.451 696.916 672.678 694.72 670.475C693.061 668.809 687.484 663.246 682.327 658.113C670.74 646.579 652.139 627.691 650.823 626.122C649.567 624.624 649.11 623.004 649.808 622.522C650.11 622.314 649.758 622.359 649.026 622.623L647.695 623.102L642.749 617.999C610.284 584.499 575.634 546.552 552.117 518.746C546.308 511.877 545.325 510.381 545.883 509.265C546.024 508.983 545.797 508.967 545.34 509.227C544.439 509.739 544.571 509.861 540.059 504.37L536.83 500.442L536.49 498.004C536.303 496.663 536.242 495.358 536.355 495.104C536.468 494.85 535.901 495.019 535.095 495.48C533.346 496.482 534.23 497.311 526.129 487.074C514.248 472.061 502.163 455.777 493.193 442.693L489.531 437.352L490.051 436.314C492.921 430.586 495.672 421.135 496.906 412.764C505.307 355.779 479.663 242.672 419.833 72.8177C408.042 39.3428 402.058 23.2216 401.233 22.7085C400.671 22.3589 400.471 21.965 400.495 21.2544C400.523 20.4063 400.145 20.0337 397.591 18.3862C394.301 16.2641 388.195 13.1068 384.094 11.407C382.6 10.7877 380.135 9.47203 378.617 8.48337C376.44 7.06554 375.658 6.76836 374.913 7.0736C374.294 7.32723 370.839 6.64978 364.902 5.11093C355.755 2.73995 350.248 1.57606 349.694 1.89634C349.528 1.99226 348.146 1.74565 346.624 1.34894C327.994 -3.50967 275.179 14.817 208.31 49.3432C199.928 53.6714 168.616 70.8348 163.514 73.8985C161.892 74.8725 154.716 79.1968 147.568 83.5085ZM210.302 53.7752C238.213 39.5898 258.151 30.3613 278.516 22.2036C311.692 8.91405 336.695 3.10482 346.474 6.41478C348.429 7.07637 348.97 7.46075 349.681 8.69171C350.392 9.92267 350.454 10.5839 350.049 12.6075C346.997 27.8806 310.14 60.9291 256.01 96.93C237.187 109.449 230.191 113.725 200.407 130.921C170.624 148.117 163.422 152.037 143.169 162.079C84.9069 190.966 37.8814 206.353 23.1238 201.358C21.1094 200.677 20.6393 200.332 19.8475 198.961C18.9862 197.469 18.9849 197.147 19.8266 194.241C20.9783 190.265 22.5149 187.559 26.6177 182.282C42.442 161.93 81.4783 130.921 129.896 100.243C134.788 97.1438 139.944 93.8733 141.353 92.9758C147.334 89.1669 203.527 57.2185 210.302 53.7752ZM162.777 87.1901C159.533 89.311 154.526 93.1351 154.515 93.4992C154.51 93.6919 163.282 88.7611 174.01 82.542C193.105 71.4719 199.643 67.9799 216.587 59.8052C224.41 56.031 230.638 52.5794 230.393 52.1542C230.104 51.6535 209.147 61.4845 194.929 68.7904C188.178 72.2596 167.608 84.0307 162.777 87.1901ZM213.946 68.5846C212.873 69.3962 208.184 72.2833 203.525 75.0004C194.522 80.2529 185.026 86.4868 184.46 87.5173C184.015 88.3258 210.215 72.6985 214.145 69.811C217.186 67.5768 217.574 67.1797 217.256 66.6284C217.049 66.27 216.864 66.3795 213.946 68.5846ZM209.32 77.1618C208.486 77.7215 205.164 79.9361 201.936 82.0827C194.881 86.7762 193.106 88.5357 199.375 84.6209C205.863 80.5699 210.74 77.1108 210.921 76.4318C211.008 76.1058 211.024 75.9084 210.957 75.9921C210.89 76.0758 210.153 76.6024 209.32 77.1618ZM301.103 29.3579C300.377 29.8799 299.717 30.5413 299.638 30.8271C299.55 31.149 305.786 27.7147 316.015 21.809C331.126 13.0845 335.441 10.2704 330.813 12.1573C328.97 12.9085 303.363 27.7341 301.103 29.3579ZM22.1308 206.151C41.3896 212.004 97.8262 191.945 171.392 153.098C184.998 145.913 221.095 125.072 234.121 116.881C295.427 78.329 338.326 43.6345 351.319 22.0954C353.853 17.8966 355.426 12.8878 355.178 9.81332L354.991 7.50138L362.477 9.47534C366.594 10.5608 370.017 11.5432 370.083 11.6577C370.149 11.7721 367.082 15.2899 363.266 19.4747C317.128 70.0712 272.753 107.904 220.717 141.009C210.407 147.568 181.612 163.907 172.147 168.568C131.324 188.671 95.7093 201.807 53.9157 212.176C39.7706 215.685 12.8248 221.118 12.1387 220.599C12.0176 220.508 12.8759 216.459 14.0456 211.603L16.172 202.773L17.513 203.964C18.2979 204.661 20.2131 205.568 22.1308 206.151ZM84.2977 164.512C86.5813 163.757 94.5199 159.152 94.2737 158.726C94.1459 158.505 91.9746 159.605 88.3996 161.703C84.4252 164.035 83.198 164.876 84.2977 164.512ZM316.304 32.4594C314.992 33.4354 313.749 34.5599 313.542 34.9583C313.239 35.5404 313.349 35.5248 314.102 34.8777C314.618 34.4351 319.283 31.4855 324.469 28.3235C329.656 25.1615 333.905 22.3927 333.911 22.1714C333.926 21.6576 319.471 30.1041 316.304 32.4594ZM82.1144 170.38C82.4506 170.483 84.4553 169.767 86.569 168.789C91.4076 166.549 100.924 161.104 100.448 160.848C100.252 160.742 96.592 162.528 92.3155 164.817C88.0388 167.106 83.8566 169.252 83.0214 169.585C81.8832 170.04 81.6561 170.239 82.1144 170.38ZM328.446 30.5868C327.969 31.0965 326.06 32.5245 324.204 33.7605C319.33 37.0051 319.222 37.8605 324.079 34.7571C328.07 32.2066 330.346 30.2353 329.997 29.631C329.772 29.2413 329.613 29.3395 328.446 30.5868ZM71.6777 184.208C72.648 185.329 78.4637 183.116 94.0357 175.699C108.946 168.598 121.649 161.855 122.971 160.34C123.578 159.644 124.024 158.837 123.963 158.546C123.875 158.126 123.714 158.209 123.193 158.94C121.608 161.165 77.9874 182.075 72.148 183.409C71.3475 183.591 71.2652 183.731 71.6777 184.208ZM383.225 16.3597C390.719 19.7056 397.318 23.5297 397.493 24.6272C397.542 24.9348 397.125 25.6033 396.567 26.1128C395.998 26.632 395.163 28.2668 394.668 29.8319C393.091 34.8202 388.398 42.117 382.072 49.4174L379.127 52.8153L372.986 53.0237C367.566 53.2076 353.389 52.7462 350.175 52.2813C349.006 52.1122 349.026 52.0816 355.119 44.6584C361.678 36.6683 370.641 25.0599 375.251 18.5847C376.812 16.3919 378.19 14.5235 378.314 14.4325C378.437 14.3414 380.648 15.209 383.225 16.3597ZM360.34 30.3916C360.159 30.7456 359.77 31.1634 359.474 31.3195C359.12 31.5069 359.117 31.3634 359.464 30.8974C360.188 29.9266 360.741 29.6071 360.34 30.3916ZM18.6975 232.57C28.9074 230.771 52.6001 225.933 55.0364 225.151L56.3963 224.714L55.8029 226.521C55.4762 227.515 54.1908 231.461 52.9459 235.29C51.7013 239.12 50.3879 243.117 50.027 244.174L49.3717 246.095L41.9969 247.665C28.8229 250.472 19.608 251.141 13.3422 249.746C9.58213 248.909 7.33339 247.696 6.33383 245.964C5.79321 245.028 5.90317 244.014 7.01311 239.702C7.7418 236.872 8.42733 234.505 8.53667 234.442C8.646 234.379 13.2183 233.536 18.6975 232.57ZM360.321 66.1493C362.186 67.0547 363.752 67.8641 363.8 67.9473C364.039 68.3602 353.825 77.3736 343.762 85.6323L336.711 91.4179L332.077 90.8825C329.528 90.5882 324.667 89.8613 321.276 89.2682L315.109 88.1894L320.554 82.7622C326.473 76.8631 335.419 67.4126 341.266 60.8839L344.959 56.7597L350.944 60.6315C354.236 62.7605 358.455 65.2436 360.321 66.1493ZM71.0134 221.281C78.3063 219.426 94.9042 214.741 100.515 212.953L103.614 211.966L102.623 215.874C102.078 218.024 101.233 221.804 100.745 224.274L99.8586 228.765L97.611 229.691C89.0908 233.203 67.1526 241.072 66.3775 240.894C66.0472 240.818 65.2599 236.6 63.4701 225.313C63.3111 224.311 63.3323 223.403 63.517 223.297C63.7017 223.19 67.0749 222.283 71.0134 221.281ZM370.38 57.2704C372.876 57.2415 374.898 57.2848 374.875 57.3668C374.76 57.7683 366.581 65.6826 366.346 65.6197C366.07 65.5451 357.378 59.8286 354.32 57.7101L352.636 56.5437L359.24 56.9332C362.872 57.1475 367.885 57.2992 370.38 57.2704ZM12.934 254.749C14.2045 254.994 16.2364 255.236 17.4499 255.286C18.6632 255.336 19.8928 255.617 20.1819 255.91C20.5022 256.235 20.866 256.248 21.1125 255.943C21.3351 255.667 23.1149 255.348 25.0678 255.232C29.6848 254.959 35.4832 254.095 42.2161 252.677C47.0116 251.667 47.6997 251.624 48.2238 252.311C51.166 256.158 69.4233 278.743 77.9943 289.138C185.356 419.346 273.876 498.046 343.476 525.168L349.597 527.553L347.117 527.79C338.582 528.604 330.881 527.26 327.29 524.329C326.793 523.924 325.931 523.857 324.77 524.133C323.439 524.45 321.779 524.223 318.012 523.211C295.346 517.124 261.347 495.112 217.331 458.026C165.952 414.738 99.674 349.733 18.177 262.699C13.9123 258.145 10.4686 254.392 10.5236 254.361C10.579 254.329 11.6635 254.504 12.934 254.749ZM404.678 44.8701C448.847 167.14 476.492 261.76 487.795 329.357C494.219 367.771 495.286 396.818 491.047 417.882C490.185 422.165 487.703 430.182 486.776 431.677C486.532 432.071 486.495 430.338 486.695 427.827C487.256 420.75 487.187 411.013 486.503 400.642C482.727 343.445 459.06 252.319 415.451 127.077C407.51 104.27 392.308 61.9483 388.762 52.7752L387.781 50.2369L389.724 47.8185C393.531 43.0802 398.792 34.2824 399.178 32.0082C399.255 31.5596 399.456 31.3164 399.627 31.4675C399.797 31.6186 402.07 37.6498 404.678 44.8701ZM60.1605 230.033C60.3434 231.279 60.8638 234.402 61.3168 236.973C61.7698 239.543 62.1023 241.822 62.0557 242.037C61.9848 242.362 56.5265 244.221 54.6759 244.551C54.3459 244.609 54.5957 243.271 55.3031 241.186C55.9493 239.281 57.1991 235.512 58.0807 232.811C58.962 230.109 59.7159 227.869 59.7554 227.833C59.7955 227.797 59.9775 228.787 60.1605 230.033ZM312.306 91.2446C312.392 91.3888 314.674 93.9133 317.379 96.8549C320.085 99.7968 322.277 102.284 322.251 102.382C322.178 102.652 311.756 110.272 303.319 116.224L295.818 121.515L291.228 121.179C288.703 120.994 284.738 120.921 282.416 121.017C280.093 121.112 278.132 121.084 278.057 120.954C277.983 120.824 279.191 119.73 280.742 118.521C285.943 114.468 298.855 103.316 305.294 97.3146C312.757 90.3575 312.112 90.9158 312.306 91.2446ZM111.286 209.479C111.343 209.489 111.875 210.685 112.469 212.136C113.062 213.588 114.212 216.245 115.023 218.042C115.835 219.838 116.461 221.453 116.413 221.63C116.366 221.807 114.001 222.944 111.157 224.156C102.734 227.746 103.397 228.415 105.928 218.874L108.116 210.623L109.65 210.042C110.493 209.722 111.229 209.468 111.286 209.479ZM121.089 206.188C131.263 202.669 154.243 193.848 156.273 192.682C156.511 192.545 156.452 194.715 156.143 197.504C155.502 203.276 155.782 202.897 149.592 206.387C146.883 207.914 131.664 215.131 123.181 218.912L120.58 220.071L119.444 217.921C117.067 213.423 115.132 208.477 115.637 208.186C115.903 208.032 118.356 207.133 121.089 206.188ZM331.332 95.4174C331.196 95.6579 330.2 96.5074 329.119 97.3054C328.037 98.1033 326.709 99.1246 326.168 99.5751L325.182 100.394L322.119 96.8116C320.434 94.8412 318.994 93.1235 318.92 92.9939C318.845 92.8647 321.663 93.2587 325.182 93.8694C328.701 94.4802 331.468 95.1771 331.332 95.4174ZM383.644 57.2507C384.997 57.2923 385.331 57.4752 385.62 58.3337C385.811 58.9017 387.469 63.4503 389.304 68.4415C456.738 251.859 488.307 377.3 481.215 433.656C480.342 440.588 480.237 440.623 479.691 434.169C474.615 374.166 453.368 292.002 415.627 186.428C404.206 154.479 389.447 115.598 376.636 83.7136C373.655 76.2943 371.097 69.8562 370.952 69.4064C370.73 68.7198 371.364 67.9113 374.914 64.355C377.238 62.0266 379.576 59.601 380.108 58.9654C381.454 57.358 381.793 57.1938 383.644 57.2507ZM33.2284 260.379C33.7497 262.276 40.9228 270.799 54.6112 285.785C63.2292 295.221 66.6705 298.719 67.0949 298.474C67.2575 298.38 67.3216 298.185 67.2376 298.04C67.1532 297.895 62.5421 292.605 56.9896 286.285C51.4375 279.964 43.8735 271.323 40.1809 267.083C36.4881 262.842 33.3667 259.431 33.2445 259.501C33.122 259.571 33.115 259.966 33.2284 260.379ZM58.2251 248.638C62.0883 247.533 62.7603 247.452 62.8976 248.077C63.1255 249.111 64.5233 249.868 65.3374 249.398C65.7162 249.179 66.1194 249.162 66.2337 249.36C66.6951 250.159 86.9382 275.063 98.6006 289.178C192.08 402.322 266.222 475.352 322.727 509.945C326.826 512.454 324.842 511.576 317.907 507.812C272.317 483.067 218.661 437.932 158.346 373.591C128.411 341.658 93.8475 301.524 61.8114 261.498C57.5829 256.215 53.7699 251.493 53.338 251.004C52.7473 250.334 52.6962 250.091 53.1331 250.022C53.4519 249.971 55.7432 249.348 58.2251 248.638ZM275.905 124.826C276.759 124.923 279.909 124.972 282.904 124.934C288.3 124.866 290.584 124.939 290.292 125.171C289.87 125.505 278.048 133.481 278.027 133.445C278.014 133.422 276.932 131.436 275.623 129.032C273.06 124.323 273.048 124.501 275.905 124.826ZM272.007 131.364C273.377 133.598 274.5 135.503 274.502 135.597C274.508 135.851 264.848 142.066 252.263 149.906L241.101 156.858L239.935 156.34C238.616 155.753 236.908 156.472 236.565 157.759C236.383 158.44 235.77 158.387 232.04 157.372L227.726 156.199L229.854 154.717C231.024 153.902 235.506 150.97 239.814 148.201C247.706 143.129 259.02 135.259 265.322 130.458C267.196 129.03 268.906 127.736 269.123 127.581C269.402 127.383 270.244 128.487 272.007 131.364ZM166.646 188.471C166.955 188.569 171.728 194.145 172.193 194.951C172.36 195.239 161.593 200.888 160.127 201.281C159.234 201.52 159.227 201.249 159.997 196.114L160.811 190.694L163.544 189.524C165.048 188.881 166.444 188.407 166.646 188.471ZM372.781 87.1509C437.099 249.08 470.532 364.87 475.287 442.163L475.922 452.499L473.965 455.278C471.865 458.259 463.803 467.482 463.187 467.607C462.983 467.649 462.894 466.53 462.991 465.12C463.087 463.711 463.212 460.12 463.268 457.141C464.636 384.658 428.696 266.885 355.357 103.528C351.749 95.4912 348.639 88.8306 348.445 88.7261C348.252 88.6219 348.63 88.09 349.286 87.5442C349.941 86.9985 354.108 83.3706 358.545 79.4826C362.982 75.5947 366.71 72.4811 366.83 72.5637C366.949 72.6462 369.627 79.2104 372.781 87.1509ZM180.808 181.547C191.356 176.449 203.062 170.344 210.346 166.142C213.768 164.168 216.627 162.656 216.699 162.781C216.772 162.907 217.092 164.617 217.412 166.583L217.993 170.157L208.755 175.49C200.428 180.298 176.363 193.348 175.993 193.257C175.91 193.237 174.792 191.953 173.507 190.406C172.223 188.858 170.912 187.346 170.594 187.045C170.071 186.552 170.175 186.435 171.667 185.833C172.576 185.466 176.689 183.537 180.808 181.547ZM77.8377 242.347C81.6946 241.015 87.8158 238.787 91.4406 237.395L98.0307 234.865L98.8456 235.851C99.2939 236.394 102.021 240.004 104.905 243.874C113.767 255.765 129.36 276.312 140.107 290.26C244.894 426.269 320.201 504.098 364.953 522.634L367.635 523.745L363.881 524.733C361.816 525.278 359.938 525.676 359.706 525.62C359.475 525.563 359.438 525.044 359.623 524.465C359.809 523.886 359.808 523.147 359.621 522.823C359.434 522.498 356.807 521.256 353.783 520.063C327.424 509.656 296.711 488.535 259.45 455.191C208.481 409.579 145.318 340.123 73.8632 251.115C69.1758 245.276 69.1624 245.255 69.9923 245.012C70.4502 244.878 73.9807 243.679 77.8377 242.347ZM45.197 260.909C45.2107 261.501 52.8557 272.508 55.5463 275.811C60.7721 282.227 69.3236 291.205 70.535 291.549C71.352 291.781 70.6778 290.879 67.2795 287.196C62.6439 282.172 53.9361 271.528 50.7256 266.962C46.7807 261.352 45.8496 260.181 45.497 260.384C45.3274 260.482 45.1921 260.718 45.197 260.909ZM228.145 160.089L232.883 161.56L227.075 164.913C223.881 166.757 221.189 168.13 221.093 167.963C220.997 167.797 220.784 166.392 220.62 164.842C220.457 163.292 220.261 161.69 220.186 161.283C220.082 160.716 220.444 160.316 221.729 159.58C223.389 158.628 223.458 158.634 228.145 160.089ZM344.972 91.987C345.253 92.4747 345.173 92.5401 344.416 92.4404C343.929 92.3769 343.44 92.3176 343.328 92.3094C343.216 92.3009 343.466 92.0969 343.884 91.8559C344.35 91.5865 344.77 91.637 344.972 91.987ZM342.114 96.3885C343.733 96.6126 345.403 96.5962 345.827 96.3518L346.596 95.9077L350.397 104.363C426.491 273.607 462.657 394.989 458.011 465.544C457.498 473.335 457.536 473.116 456.545 473.97L455.702 474.697L455.664 471.395C454.93 408.974 417.962 300.062 344.776 144.708C340.818 136.308 335.133 124.363 332.141 118.165C328.004 109.592 326.87 106.969 327.405 107.206C328.519 107.699 328.877 107.203 328.549 105.625C328.381 104.821 328.343 104.089 328.464 104C328.585 103.91 330.492 102.416 332.702 100.679C338.807 95.8811 338.724 95.9193 342.114 96.3885ZM111.992 229.07C115.801 227.433 119.086 226.126 119.293 226.165C119.499 226.205 122.987 231.057 127.045 236.951C230.525 387.235 311.728 481.315 369.343 517.673C374.579 520.978 373.758 521.051 366.419 517.938C322.133 499.146 247.967 422.226 143.886 287.142C127.201 265.486 104.355 235.266 103.34 233.508C102.987 232.897 103.095 232.716 103.991 232.411C104.582 232.21 108.182 230.707 111.992 229.07ZM361.718 95.7548C363.595 100.896 366.084 107.289 367.25 109.962C369.344 114.763 374.119 123.508 374.292 122.858C374.342 122.674 373.476 120.452 372.37 117.921C368.454 108.964 366.171 103.483 363.992 97.8016C361.24 90.6289 359.306 86.4383 358.739 86.421C358.501 86.4137 359.842 90.6139 361.718 95.7548ZM325.183 114.941C397.708 264.688 440.325 379.155 448.982 447.455C450.31 457.94 451.2 474.412 450.648 478.306C450.563 478.903 449.466 480 447.029 481.925C445.105 483.445 443.442 484.664 443.334 484.635C443.225 484.605 442.895 481.474 442.601 477.676C438.842 429.187 413.487 354.893 365.87 252.841C348.649 215.933 331.237 180.874 305.543 131.373C303.345 127.139 301.575 123.616 301.609 123.543C301.643 123.47 306.126 120.202 311.571 116.279C317.016 112.357 321.619 109.032 321.799 108.89C322.018 108.716 323.135 110.713 325.183 114.941ZM131.746 220.393C135.72 218.596 142.514 215.431 146.843 213.36C151.172 211.289 154.822 209.621 154.953 209.653C155.084 209.685 158.264 214.2 162.021 219.685C264.806 369.778 341.307 467.531 388.794 509.452C391.426 511.776 393.551 513.784 393.517 513.913C393.456 514.14 384.585 517.961 382.349 518.723C380.993 519.186 378.002 517.548 367.873 510.797C312.117 473.639 234.207 383.267 138.024 244.181C131.789 235.164 126.073 226.931 125.323 225.884C124.572 224.836 124.085 223.908 124.239 223.82C124.394 223.732 127.772 222.19 131.746 220.393ZM298.801 129.003C299.571 130.553 303.112 137.41 306.67 144.238C382.203 289.206 427.043 400.061 436.253 464.6C437.253 471.609 438.489 486.001 438.082 485.892C437.95 485.856 437.298 483.618 436.633 480.918C421.433 419.172 383.94 331.099 324.658 217.883C311.794 193.314 305.923 182.35 294.501 161.563C288.969 151.497 283.775 141.908 282.959 140.254C281.62 137.542 281.54 137.19 282.144 136.659C282.512 136.335 285.996 133.934 289.885 131.323C293.774 128.712 297.056 126.488 297.179 126.379C297.301 126.271 298.031 127.452 298.801 129.003ZM169.837 201.998L175.493 199.048L176.025 199.97C176.771 201.262 196.743 232.131 206.471 247.029C285.148 367.511 342.345 447.625 381.015 491.506C387.464 498.824 397.449 509.436 399.214 510.848C399.661 511.205 399.647 511.353 399.161 511.43C398.365 511.556 386.37 500.941 378.533 493.174C330.716 445.789 263.372 358.426 169.887 222.507C165.071 215.504 160.775 209.16 160.341 208.41L159.551 207.046L161.866 205.996C163.139 205.419 166.726 203.62 169.837 201.998ZM279.56 144.324C280.917 146.824 285.924 155.993 290.687 164.701C355.049 282.378 401.205 382.03 422.589 449.481C427.061 463.589 431.475 479.543 433.32 488.273L433.991 491.445L430.715 493.637C426.007 496.788 423.092 498.413 422.863 498.016C422.753 497.825 422.275 496.098 421.801 494.177C417.727 477.676 406.328 450.37 388.889 415.336C361.387 360.085 310.945 271.665 251.595 174.668C247.121 167.358 243.48 161.319 243.502 161.248C243.524 161.178 248.951 157.744 255.563 153.616C265.943 147.136 275.58 140.965 276.743 140.054C276.984 139.866 277.861 141.195 279.56 144.324ZM365.475 89.8062C365.545 90.088 366.189 91.7699 366.906 93.544C367.625 95.318 369.528 100.644 371.136 105.38C374.161 114.288 376.15 119.203 376.049 117.524C375.927 115.481 368.113 92.4129 366.735 90.0262C366.093 88.9149 365.217 88.7623 365.475 89.8062ZM203.934 183.822C212.14 179.259 219.007 175.567 219.193 175.617C219.786 175.776 259.704 237.821 285.157 278.14C337.68 361.346 376.915 427.593 396.621 466.346C403.626 480.122 410.909 496.289 412.854 502.382L413.296 503.766L409.156 506.274C406.878 507.654 404.773 508.764 404.477 508.741C403.77 508.687 397.287 502.224 390.277 494.585C348.309 448.848 274.892 345.066 182.1 200.308L179.831 196.769L184.423 194.444C186.948 193.165 195.728 188.385 203.934 183.822ZM239.474 164.191C239.67 164.529 243.451 170.72 247.876 177.949C296.726 257.742 344.114 339.824 371.321 391.772C397.315 441.404 412.489 476.095 417.543 497.452C418.012 499.434 418.243 501.144 418.057 501.251C417.866 501.361 417.542 500.926 417.315 500.255C414.464 491.839 407.557 476.914 396.806 455.94C390.484 443.608 348.753 371.338 335.58 349.912C317.839 321.055 303.035 297.265 288.857 274.833C268.793 243.088 230.059 182.669 225.289 175.676L223.523 173.087L226.544 171.186C228.206 170.141 231.715 168.001 234.343 166.431C238.687 163.835 239.151 163.632 239.474 164.191ZM310.758 123.738C310.822 124.023 314.356 130.882 318.613 138.981C324.555 150.289 326.966 154.57 328.999 157.425C331.778 161.329 332.485 162.103 333 161.806C333.178 161.704 330.092 156.047 325.845 148.691C321.737 141.577 316.824 132.827 314.926 129.247C312.316 124.324 311.374 122.797 311.059 122.979C310.83 123.111 310.694 123.453 310.758 123.738ZM188.476 197.581C189.326 200.133 190.072 201.471 195.253 209.735C203.735 223.266 213.639 237.421 215.221 238.274C215.962 238.674 216.023 237.737 215.312 236.874C214.922 236.401 211.081 230.464 206.776 223.68C198.838 211.172 190.36 198.055 189.555 197.036C188.878 196.18 188.134 196.556 188.476 197.581ZM317.398 125.522C317.49 125.929 327.373 144.043 333.224 154.531C333.793 155.551 334.441 156.336 334.663 156.276C335.207 156.128 332.804 151.369 324.782 136.707C319.667 127.357 318.018 124.578 317.698 124.764C317.468 124.896 317.333 125.238 317.398 125.522ZM194.521 198.5C195.638 199.406 198.562 203.448 202.859 210.025C207.903 217.745 216.113 229.269 216.655 229.39C217.109 229.492 207.321 213.473 202.977 207.004C199.709 202.137 196.524 198.352 195.323 197.907C194.415 197.569 193.87 197.973 194.521 198.5ZM209.267 189.941C209.659 190.229 216.653 201.78 224.81 215.609C239.052 239.754 250.281 257.954 253.242 261.69C254.012 262.662 245.392 247.52 234.086 228.043C212.395 190.671 212.04 190.113 209.67 189.638C208.579 189.42 208.571 189.427 209.267 189.941ZM202.514 195.361C203.849 196.627 204.709 197.828 208.857 204.222C213.589 211.515 218.589 218.449 221.555 221.832C224.203 224.852 223.257 223.262 214.547 210.052C207.066 198.708 204.975 195.849 203.471 194.913C202.518 194.32 201.781 194.665 202.514 195.361ZM132.642 309.901C132.996 310.276 135.725 313.493 138.705 317.051C149.67 330.137 155.643 336.709 162.702 343.456C165.916 346.528 168.011 348.155 168.138 347.679C168.176 347.539 166.732 345.983 164.929 344.222C159.262 338.685 152.531 331.374 143.011 320.417C137.945 314.587 133.559 309.588 133.264 309.308C132.47 308.553 131.891 309.106 132.642 309.901ZM142.936 311.448C147.857 318.662 153.072 324.784 159.089 330.409C160.498 331.725 161.854 332.809 162.101 332.816C162.734 332.836 162.743 332.846 158.3 328.294C153.434 323.308 149.058 318.033 144.926 312.172C142.521 308.76 141.705 307.829 141.317 308.052C140.902 308.292 141.178 308.87 142.936 311.448ZM214.829 330.592C216.452 334.835 232.397 355.855 244.005 369.056C248.668 374.359 251.992 377.8 252.091 377.428C252.118 377.325 246.27 369.785 239.096 360.673C226.505 344.682 219.25 335.161 216.442 330.943C214.893 328.614 213.998 328.42 214.829 330.592ZM229.046 331.611C228.863 332.295 238.355 342.846 244.979 349.321C247.214 351.506 249.622 353.876 250.33 354.588C251.038 355.299 251.648 355.766 251.686 355.625C251.759 355.352 249.162 352.429 239.11 341.474C235.635 337.687 232.087 333.785 231.225 332.802C229.78 331.155 229.246 330.863 229.046 331.611ZM229.213 339.033C231.185 342.45 240.972 354.103 243.471 356.011C244.851 357.065 245.52 357.094 244.466 356.054C243.86 355.455 235.972 345.983 231.172 340.088C229.344 337.845 228.158 337.205 229.213 339.033ZM342.7 299.836C348.681 310.369 355.417 323.158 365.803 343.698C369.884 351.769 373.316 358.408 373.429 358.449C374.655 358.906 370.626 349.135 364.866 337.685C352.457 313.02 340.053 291.427 337.984 290.891C337.75 290.83 339.872 294.856 342.7 299.836ZM353.293 308.203C355.102 310.956 359.746 318.755 363.613 325.535C367.583 332.494 370.587 337.466 370.514 336.954C370.081 333.92 363.281 321.354 356.442 310.949C352.061 304.284 350.854 302.706 350.359 302.991C350.121 303.129 351.089 304.849 353.293 308.203ZM357.614 307.581C361.463 315.852 364.203 320.565 364.505 319.433C364.559 319.229 363.318 316.393 361.746 313.13C357.892 305.131 357.515 304.478 356.935 304.813C356.596 305.009 356.796 305.825 357.614 307.581ZM206.722 440.576C213.807 450.095 244.894 478.731 250.306 480.723C251.774 481.264 251.353 480.587 249.133 478.837C239.489 471.236 218.582 451.862 209.436 442.051C205.789 438.14 204.31 437.335 206.722 440.576ZM216.451 445.698C217.464 448.178 221.666 451.717 234.523 460.922C238.902 464.058 243.88 467.67 245.583 468.948C247.287 470.226 248.709 471.163 248.745 471.03C248.84 470.674 239.829 463.457 232.803 458.262C224.753 452.31 219.415 448.053 218.175 446.598C217.263 445.528 216.142 444.943 216.451 445.698ZM447.63 338.943C449.471 343.491 455.59 361.721 457.403 368.055C459.953 376.97 461.924 385.532 462.082 388.383C462.15 389.601 462.39 390.696 462.615 390.818C465.09 392.153 461.401 374.144 455.964 358.353C453.803 352.076 450.187 342.526 448.813 339.464C447.6 336.759 446.561 336.302 447.63 338.943ZM345.634 416.492C354.242 429.964 364.491 443.922 380.851 464.449C387.975 473.389 387.868 473.271 388.513 472.9C389.34 472.422 388.345 471.022 374.921 453.791C361.892 437.067 356.057 429.358 351.27 422.543C345.57 414.429 343.302 411.432 342.848 411.418C342.547 411.409 343.533 413.203 345.634 416.492ZM457.14 353.811C457.296 354.301 458.36 357.636 459.505 361.223C460.65 364.811 462.683 371.618 464.023 376.351C465.363 381.085 466.562 385.132 466.689 385.345C467.783 387.181 465.38 376.006 463.117 368.735C461.457 363.398 458.101 353.486 457.747 352.873C457.35 352.186 456.863 352.939 457.14 353.811ZM360.252 425.316C360.12 425.811 369.03 437.208 373.961 442.849C379.394 449.066 384.919 454.707 385.809 454.947C386.729 455.194 386.454 454.847 379.018 446.386C375.242 442.09 369.999 435.921 367.366 432.677C364.734 429.433 362.198 426.316 361.73 425.75C360.939 424.793 360.431 424.644 360.252 425.316ZM354.245 434.191C359.682 443.584 368.509 454.221 371.966 455.543C372.928 455.912 372.929 455.911 372.292 455.347C368.655 452.126 362.552 444.543 356.602 435.854C352.784 430.279 351.426 429.32 354.245 434.191ZM372.134 432.148C372.352 433.75 377.098 441.995 378.153 442.603C378.898 443.032 378.915 442.984 378.371 442.006C378.046 441.422 376.558 438.647 375.065 435.839C373.572 433.032 372.266 430.784 372.162 430.844C372.058 430.905 372.045 431.491 372.134 432.148ZM503.093 464.98C506.133 469.12 511.138 475.769 514.214 479.757C517.29 483.745 519.807 487.16 519.806 487.346C519.805 487.531 521.9 491.962 524.461 497.192L529.119 506.701L528.284 508.561C526.828 511.803 519.05 522.498 518.295 522.295C517.875 522.182 514.428 514.582 501.536 485.356L491.086 461.663L491.736 460.129C492.094 459.286 492.749 457.222 493.193 455.543L494.001 452.49L495.783 454.972C496.763 456.337 500.052 460.841 503.093 464.98ZM344.818 545.388C346.128 545.493 348.693 545.58 350.519 545.581C353.717 545.584 353.861 545.631 354.45 546.869C358.563 555.513 379.217 601.907 379.118 602.279C379.021 602.644 373.246 603.41 368.464 603.692L363.719 603.972L361.608 600.063C359.071 595.365 358.423 593.868 352.38 578.727C349.791 572.241 345.813 562.424 343.541 556.913C341.269 551.402 339.195 546.318 338.933 545.616L338.455 544.34L340.446 544.769C341.542 545.005 343.509 545.283 344.818 545.388ZM488.459 468.68C488.969 470.097 503.255 502.486 509.895 517.279C512.281 522.595 514.225 526.984 514.213 527.032C514.137 527.351 507.863 533.328 504.521 536.266C502.305 538.214 500.233 540.048 499.915 540.342C499.37 540.847 499.246 540.686 497.607 537.338C493.467 528.882 474.68 487.245 473.998 485.015C473.782 484.31 474.217 483.629 476.268 481.459C479.725 477.802 483.996 472.701 485.859 470.003C486.708 468.774 487.539 467.69 487.704 467.595C487.87 467.498 488.21 467.987 488.459 468.68ZM364.864 543.859C367.233 543.39 371.532 542.36 374.416 541.569L379.66 540.131L380.973 542.136C383.866 546.55 400.173 577.61 406.526 590.805L408.039 593.947L404.139 595.381C399.393 597.126 394.037 598.817 388.775 600.229C385.366 601.145 384.773 601.188 384.405 600.548C384.171 600.14 381.6 594.422 378.694 587.839C373.048 575.055 360.11 546.331 359.599 545.445C359.41 545.118 359.536 544.872 359.923 544.811C360.272 544.756 362.495 544.327 364.864 543.859ZM470.25 489.726C471.337 492.562 483.519 519.672 488.498 530.335C494.382 542.936 495.002 544.363 494.684 544.567C494.554 544.65 493.004 545.857 491.238 547.249C486.573 550.928 486.848 550.838 486.069 548.941C485.706 548.056 480.343 535.405 474.152 520.828C467.96 506.251 462.915 494.231 462.94 494.117C463.005 493.813 467.934 489.411 468.886 488.806C469.637 488.328 469.74 488.397 470.25 489.726ZM397.442 533.473C401.225 531.888 404.458 530.628 404.626 530.673C404.945 530.759 412.56 545.526 422.709 565.743C431.576 583.407 431.716 583.715 431.042 584.104C429.029 585.262 413.519 591.986 413.112 591.876C413.006 591.848 410.954 587.836 408.551 582.962C402.198 570.073 397.511 561.048 390.896 548.969L385.041 538.274L387.802 537.315C389.32 536.787 393.658 535.058 397.442 533.473ZM458.909 498.38C459.059 498.873 464.369 511.449 470.709 526.327C477.05 541.204 482.205 553.534 482.167 553.727C482.081 554.152 472.298 560.936 471.917 560.833C471.604 560.749 448.243 505.826 448.349 505.425C448.411 505.194 456.281 499.068 458.01 497.905C458.494 497.58 458.698 497.688 458.909 498.38ZM427.242 518.549C432.541 515.488 438.398 511.951 440.258 510.689L443.639 508.395L448.094 518.858C450.545 524.612 455.849 537.106 459.881 546.622L467.211 563.924L452.088 572.656C443.77 577.458 436.818 581.348 436.638 581.299C436.459 581.251 434.455 577.457 432.187 572.868C428.103 564.61 417.058 542.738 412.096 533.086L409.526 528.086L413.566 526.101C415.788 525.009 421.942 521.611 427.242 518.549ZM537.952 509.389L540.61 512.653L540.517 514.579C540.423 516.518 539.285 520.617 538.743 520.967C538.583 521.071 538.131 521.928 537.74 522.872C536.989 524.684 535.377 527.154 532.004 531.666C522.731 544.067 504.118 560.127 482.102 574.723C475.194 579.304 453.392 591.912 446.318 595.418C427.125 604.931 409.872 611.613 395.78 614.992C391.805 615.946 389.467 616.409 383.367 617.453C380.57 617.932 373.256 618.115 370.322 617.781C367.815 617.495 367.386 617.315 367.076 616.421C366.88 615.854 366.185 614.013 365.531 612.33C364.878 610.648 364.351 609.214 364.359 609.145C364.368 609.076 366.168 608.94 368.36 608.843C384.486 608.13 408.835 600.313 435.998 587.129C445.783 582.38 467.021 570.241 475.521 564.539C487.469 556.523 501.579 545.808 508.167 539.748C521.763 527.239 528.66 519.013 533.86 509.104C534.347 508.176 534.752 507.194 534.76 506.921C534.793 505.796 535.426 506.286 537.952 509.389ZM547.256 520.52C560.246 536.273 590.26 569.739 614.184 595.145C619.203 600.474 623.355 604.923 623.412 605.031C623.469 605.14 603.466 589.974 578.961 571.331C554.456 552.687 534.411 537.26 534.417 537.049C534.424 536.838 535.282 535.614 536.325 534.328C539.694 530.176 543.098 524.463 544.51 520.592C545.302 518.421 545.52 518.416 547.256 520.52ZM370.941 622.988C371.157 623.104 371.896 623.178 372.583 623.153C373.269 623.127 375.649 623.039 377.871 622.956C384.533 622.709 393.729 620.958 403.303 618.115C406.483 617.171 409.211 616.432 409.366 616.474C409.521 616.515 412.739 646.253 416.518 682.558C420.298 718.863 423.354 748.547 423.31 748.525C423.266 748.502 415.438 730.863 405.913 709.327C396.388 687.792 388.348 669.735 388.048 669.2C387.625 668.45 387.336 668.324 386.776 668.647C386.248 668.951 386.006 668.869 385.884 668.343C385.511 666.742 375.897 639.868 371.24 627.409C369.802 623.562 369.719 622.328 370.941 622.988ZM530.812 543.706C531.224 544.691 544.052 573.88 559.318 608.569C574.585 643.257 587.063 671.692 587.045 671.756C587.011 671.883 483.502 580.386 483.317 580.065C483.255 579.957 484.917 578.739 487.011 577.358C495.898 571.494 511.166 559.884 516.965 554.581C521.25 550.662 528.473 543.645 528.783 543.1C529.576 541.703 530.033 541.84 530.812 543.706ZM420.995 612.116C434.337 607.031 450.068 599.4 465.757 590.399L477.743 583.522L478.179 585.372C478.419 586.389 486.076 618.267 495.193 656.211C504.311 694.155 511.604 725.143 511.4 725.073C511.105 724.971 419.734 619.344 416.327 615.166C415.469 614.115 415.473 614.037 416.392 613.776C416.927 613.624 418.998 612.876 420.995 612.116ZM590.672 586.427C619.595 608.435 643.298 626.507 643.344 626.588C643.391 626.669 643.192 626.872 642.903 627.038C642.614 627.205 642.454 627.474 642.547 627.636C643.106 628.603 640.247 635.594 638.998 636.315C638.697 636.489 638.445 636.833 638.438 637.079C638.426 637.488 637.268 639.253 635.199 642.019C631.757 646.618 622.962 655.613 615.221 662.45C608.349 668.52 596.523 678.004 595.688 678.115C595.467 678.144 582.404 648.866 566.11 611.82C550.061 575.329 537.189 545.685 537.507 545.943C537.825 546.201 561.749 564.419 590.672 586.427ZM382.356 640.326C382.347 640.648 383.638 644.187 385.225 648.191C386.812 652.195 390.058 660.865 392.44 667.457C397.013 680.12 399.073 685.063 399.367 684.082C399.78 682.705 392.867 660.906 388.765 650.646C386.046 643.845 382.424 638.013 382.356 640.326ZM462.114 675.709C487.549 705.181 508.74 729.76 509.204 730.328L510.048 731.362L508.065 732.508C505.137 734.198 491.911 740.522 484.227 743.906C466.179 751.854 451.759 757.131 439.094 760.424C430.988 762.531 430.135 762.711 429.929 762.353C429.506 761.62 415.138 621.863 415.499 621.992C415.702 622.064 436.679 646.237 462.114 675.709ZM537.384 634.509C566.673 660.423 590.597 681.769 590.551 681.945C590.386 682.56 581.381 688.887 565.051 699.86L562.157 701.805L560.356 699.187C552.87 688.303 548.211 681.994 546.845 680.886C545.684 679.944 545.635 680.917 546.767 682.426C548.734 685.048 560.186 702.417 560.117 702.674C560.081 702.807 558.009 704.244 555.511 705.868L550.969 708.821L549.58 705.921C548.816 704.326 548.082 702.577 547.949 702.034C547.794 701.405 547.624 701.202 547.478 701.474C547.327 701.753 545.902 699.739 543.34 695.627C539.455 689.39 538.099 687.547 537.608 687.831C537.233 688.047 540.348 694.212 544.292 701.059C546.184 704.343 547.979 707.685 548.28 708.484L548.827 709.938L533.428 718.698C524.958 723.516 517.866 727.414 517.667 727.36C517.367 727.279 483.834 588.818 483.833 587.651C483.832 587.442 483.9 587.297 483.982 587.331C484.065 587.365 508.096 608.595 537.384 634.509ZM389.744 648.091C390.668 649.417 392.662 654.02 396.192 662.979C401.733 677.039 401.816 677.232 402.032 676.423C402.217 675.729 398.155 663.794 395.344 656.773C392.965 650.831 391.252 647.587 389.919 646.499C388.43 645.284 388.343 646.082 389.744 648.091ZM394.361 649.664C394.355 649.875 394.852 650.589 395.466 651.249C396.143 651.978 397.33 654.05 398.478 656.507C400.959 661.823 401.319 662.437 401.516 661.699C401.602 661.376 400.746 658.91 399.614 656.219C397.918 652.188 397.331 651.114 396.28 650.121C395.068 648.978 394.385 648.815 394.361 649.664ZM568.247 603.081C572.459 610.112 578.741 620.091 582.208 625.259C588.591 634.771 589.17 635.428 590.131 634.24C590.63 633.624 589.384 631.546 582.355 621.268C576.102 612.124 570.647 603.879 565.547 595.862C562.141 590.509 561.539 589.75 560.963 590.082C560.701 590.233 562.883 594.128 568.247 603.081ZM410.786 732.428C417.973 748.663 424.034 762.261 424.256 762.644C424.477 763.027 424.495 763.436 424.295 763.551C423.726 763.88 415.412 764.321 415.245 764.032C415.163 763.89 414.282 760.701 413.289 756.945C410.524 746.496 404.125 724.376 400.582 713.016C398.834 707.411 397.475 702.843 397.562 702.866C397.648 702.89 403.6 716.192 410.786 732.428ZM578.339 598.973C579.571 601.107 588.502 611.512 589.788 612.313C590.819 612.954 591.341 612.58 590.754 611.62C589.605 609.742 579.021 598.206 578.538 598.307C578.252 598.366 578.162 598.667 578.339 598.973ZM584.511 595.095C584.594 595.24 586.305 597.178 588.312 599.402C591.42 602.847 594.158 605.132 594.344 604.435C594.427 604.126 589.393 598.518 587.126 596.394C585.978 595.319 584.886 594.527 584.699 594.635C584.512 594.744 584.427 594.951 584.511 595.095ZM591.31 595.217C591.435 596.002 593.468 598.016 594.635 598.51C595.503 598.878 595.513 598.824 594.8 597.566C594.073 596.282 591.84 594.258 591.419 594.501C591.307 594.566 591.258 594.888 591.31 595.217ZM437.544 704.73C437.857 705.273 439.587 709.711 441.389 714.593C449.565 736.752 454.409 748.42 455.261 748.01C455.651 747.822 447.413 725.48 442.91 714.513C439.713 706.729 438.218 703.782 437.451 703.758C437.177 703.75 437.217 704.162 437.544 704.73ZM520.708 674.298C521.275 675.58 525.238 684.697 529.514 694.557C533.791 704.417 537.497 712.652 537.75 712.858C538.274 713.282 539.235 712.857 539.255 712.193C539.27 711.684 522.442 675.367 521.145 673.11C519.842 670.841 519.54 671.66 520.708 674.298ZM452.015 717.976C451.99 718.855 462.73 737.355 463.55 737.844C464.284 738.282 464.314 738.233 463.999 737.111C463.419 735.049 453.072 717.321 452.514 717.432C452.247 717.485 452.023 717.73 452.015 717.976ZM461.353 721.884C461.37 722.338 466.744 730.416 467.71 731.439C468.924 732.726 468.562 731.15 466.822 727.583C465.73 725.342 464.725 723.772 463.752 722.784C462.411 721.421 461.32 721.013 461.353 721.884ZM654.955 637.518C655.729 638.316 655.709 638.37 654.348 639.157C653.573 639.604 653.03 640.128 653.142 640.321C653.253 640.514 653.108 640.808 652.819 640.975C652.53 641.142 652.37 641.411 652.463 641.573C653.022 642.54 650.163 649.531 648.913 650.252C648.613 650.426 648.361 650.77 648.353 651.016C648.341 651.445 647.078 653.369 645.361 655.575C632.39 672.241 605.676 694.048 570.889 716.368C561.637 722.304 533.653 738.452 523.924 743.469C494.473 758.655 468.914 769.184 448.807 774.414C446.684 774.966 443.942 775.679 442.713 775.999C441.484 776.318 440.253 776.553 439.978 776.522C439.703 776.491 438.607 776.696 437.542 776.977C436.478 777.259 435.444 777.402 435.245 777.295C435.046 777.187 434.627 777.247 434.315 777.428C433.32 778.002 424.399 778.297 422.488 777.819C421.477 777.566 420.49 777.452 420.294 777.564C420.098 777.677 419.586 777.55 419.154 777.282C418.445 776.841 417.658 774.524 416.793 770.329C416.717 769.964 416.935 769.785 417.488 769.757C417.931 769.736 419.368 769.575 420.68 769.399C421.992 769.224 423.903 768.987 424.927 768.873C425.951 768.759 426.994 768.546 427.247 768.401C427.5 768.255 427.942 768.197 428.229 768.271C429.245 768.536 447.562 763.587 453.446 761.458C455.267 760.8 459.192 759.382 462.17 758.308C475.185 753.615 494.215 745.118 512.506 735.832C525.254 729.361 553.235 713.331 564.472 706.062C592.702 687.799 616.357 669.559 630.104 655.451C636.123 649.276 637.342 647.956 637.912 646.999C638.258 646.417 638.738 645.828 638.979 645.689C639.219 645.551 640.006 644.602 640.727 643.582C641.448 642.562 642.803 640.684 643.737 639.409C644.672 638.133 645.728 636.438 646.086 635.64C646.443 634.841 646.867 634.113 647.027 634.02C647.187 633.928 647.538 633.146 647.807 632.283L648.296 630.713L651.225 633.703C652.836 635.348 654.515 637.064 654.955 637.518ZM566.919 685.537C570.693 691.977 570.535 691.759 571.177 691.388C572.016 690.904 571.285 689.287 568.472 685.411C563.182 678.122 562.601 678.169 566.919 685.537ZM672.355 655.032L684.954 667.71L684.952 671.166C684.951 673.066 684.825 676.26 684.672 678.264L684.394 681.906L681.139 677.26C679.349 674.706 674.082 667.121 669.435 660.407C664.787 653.692 660.319 647.266 659.506 646.126C658.244 644.359 658.11 644.006 658.591 643.729C658.902 643.549 659.108 643.1 659.049 642.731C658.99 642.361 659.125 642.125 659.35 642.206C659.574 642.287 665.426 648.058 672.355 655.032ZM421.404 783.666C421.784 783.808 423.158 783.866 424.456 783.796C425.753 783.726 427.133 783.672 427.521 783.676C427.909 783.68 428.573 783.607 428.996 783.513C429.725 783.35 429.972 783.724 433.641 790.579C441.699 805.631 451.57 823.692 454.838 829.362C456.703 832.598 458.136 835.3 458.021 835.366C457.34 835.759 440.13 833.41 438.06 832.642C437.325 832.369 436.454 830.818 431.526 821.017L425.839 809.707L423.957 801.197C422.922 796.516 421.667 790.921 421.169 788.763C420.005 783.724 420.018 783.81 420.392 783.593C420.568 783.492 421.022 783.525 421.404 783.666ZM665.169 663.571C669.883 670.377 675.852 678.938 678.436 682.596L683.133 689.247L681.904 694.09C680.374 700.12 677.676 707.222 674.558 713.429C672.198 718.127 667.352 726.395 667.012 726.303C666.643 726.204 643.739 692.938 635.195 680.092L632.794 676.481L633.933 675.327C634.559 674.691 636.618 672.662 638.508 670.816C643.689 665.757 648.73 660.187 650.917 657.105C651.484 656.306 652.714 654.612 653.649 653.339C654.584 652.065 655.429 650.798 655.527 650.521C655.747 649.895 654.966 648.838 665.169 663.571ZM438.162 782.262C438.448 782.302 440.057 781.993 441.738 781.576C443.419 781.159 445.136 780.738 445.553 780.641C446.182 780.494 446.421 780.73 446.952 782.018C447.304 782.873 451.929 791.496 457.229 801.181C462.53 810.866 468.882 822.521 471.345 827.081L475.824 835.372L470.19 835.528L464.556 835.683L460.784 829.144C456.988 822.563 445.453 801.484 439.008 789.351L435.536 782.816L436.589 782.503C437.169 782.33 437.877 782.222 438.162 782.262ZM457.922 777.18L462.539 775.796L472.622 792.721C478.167 802.029 485.815 814.635 489.616 820.734C493.417 826.833 496.557 832.002 496.594 832.22C496.651 832.559 488.747 833.99 483.381 834.612L481.679 834.809L475.877 824.234C459.338 794.088 452.885 782.196 452.261 780.717C451.652 779.273 451.673 779.053 452.439 778.823C452.915 778.68 455.383 777.94 457.922 777.18ZM631.023 683.403C640.698 697.801 651.763 713.935 661.853 728.354L663.788 731.12L662.603 732.747C658.493 738.391 644.16 754.264 643.366 754.05C642.689 753.868 626.581 728.403 615.598 710.151L607.729 697.076L608.634 696.288C609.131 695.855 610.933 694.456 612.638 693.18C615.294 691.191 621.894 685.788 626.123 682.141C628.833 679.803 628.556 679.732 631.023 683.403ZM473.076 771.905C477.382 770.312 491.335 764.637 492.264 764.1C492.602 763.905 493.772 765.7 497.375 771.94C499.945 776.391 507.922 789.815 515.103 801.771C522.283 813.726 528.136 823.591 528.109 823.692C527.971 824.208 512.383 828.962 505.629 830.547L502.234 831.344L500.357 828.112C499.324 826.335 495.964 820.856 492.89 815.937C489.816 811.017 482.878 799.592 477.472 790.547C469.515 777.232 467.73 774.052 468.096 773.841C468.344 773.698 470.585 772.826 473.076 771.905ZM607.473 706.894C612.306 715.266 623.259 732.969 632.332 747.073C636.18 753.056 639.306 758.017 639.276 758.098C639.083 758.617 625.951 769.544 625.651 769.434C625.125 769.244 589.207 710.628 589.344 710.186C589.412 709.967 599.971 702.558 602.185 701.175L603.644 700.263L607.473 706.894ZM505.492 758.078C508.736 756.575 513.306 754.386 515.648 753.212L519.906 751.077L522.971 756.383C527.077 763.493 547.588 797.595 552.609 805.661L556.618 812.1L555.363 812.624C554.672 812.912 551.515 814.302 548.346 815.713C545.177 817.124 540.631 819.06 538.244 820.014C533.983 821.718 533.888 821.734 533.051 820.892C532.064 819.899 502.627 770.429 499.906 765.189C498.188 761.883 498.126 761.653 498.837 761.244C499.253 761.005 502.247 759.58 505.492 758.078ZM587.524 717.646C590.972 723.596 603.91 744.77 613.66 760.417C619.739 770.176 621.186 772.692 620.959 773.116C620.672 773.65 616.068 777.031 607.741 782.823L603.159 786.01L602.199 784.91C601.036 783.576 567.241 725.219 567.364 724.757C567.412 724.578 571.256 721.95 575.907 718.917C580.558 715.884 584.468 713.312 584.597 713.2C584.725 713.089 586.043 715.09 587.524 717.646ZM545.226 737.555C545.342 737.578 548.434 743.402 552.098 750.496C560.737 767.226 569.575 783.658 574.948 792.983L579.233 800.42L575.906 802.144C574.076 803.092 570.063 805.195 566.986 806.817L561.393 809.765L556.463 801.774C551.571 793.845 529.788 757.626 526.41 751.806L524.65 748.772L534.833 743.143C540.434 740.046 545.111 737.532 545.226 737.555ZM580.302 758.146L598.12 788.988L593.861 791.746C591.518 793.263 588.276 795.271 586.654 796.208L583.707 797.911L576.089 784.169C571.898 776.612 566.431 766.549 563.94 761.808C556.807 748.234 550.876 736.675 550.56 735.731C550.238 734.769 550.888 734.278 558.67 729.598L562.485 727.304L580.302 758.146ZM430.151 829.506L430.984 830.95L429.833 830.509C428.781 830.107 428.698 829.988 428.879 829.135C429.15 827.852 429.205 827.868 430.151 829.506Z" fill="#1329C0"/>
</svg>
