<svg width="468" height="581" viewBox="0 0 468 581" fill="none" xmlns="http://www.w3.org/2000/svg">
<path d="M377.68 285.94C412.275 285.94 440.32 257.895 440.32 223.3C440.32 188.705 412.275 160.66 377.68 160.66C343.085 160.66 315.04 188.705 315.04 223.3C315.04 257.895 343.085 285.94 377.68 285.94Z" fill="white"/>
<path d="M78.4 285.94C112.995 285.94 141.04 257.895 141.04 223.3C141.04 188.705 112.995 160.66 78.4 160.66C43.8049 160.66 15.76 188.705 15.76 223.3C15.76 257.895 43.8049 285.94 78.4 285.94Z" fill="white"/>
<path d="M238.48 569.56C273.075 569.56 301.12 541.515 301.12 506.92C301.12 472.325 273.075 444.28 238.48 444.28C203.885 444.28 175.84 472.325 175.84 506.92C175.84 541.515 203.885 569.56 238.48 569.56Z" fill="#FD7E50"/>
<path d="M440.32 19.72C440.32 36.172 437.08 52.4629 430.784 67.6626C424.488 82.8623 415.26 96.673 403.626 108.306C391.993 119.94 378.182 129.168 362.983 135.464C347.783 141.76 331.492 145 315.04 145L315.04 19.72H440.32Z" fill="#FD7E50"/>
<path d="M315.04 145C298.588 145 282.297 141.76 267.097 135.464C251.898 129.168 238.087 119.94 226.454 108.306C214.82 96.673 205.592 82.8622 199.296 67.6626C193 52.4629 189.76 36.172 189.76 19.72L315.04 19.72L315.04 145Z" fill="#95D0D5"/>
<path d="M154.96 19.72C154.96 52.9463 141.761 84.8118 118.266 108.306C94.7718 131.801 62.9064 145 29.6801 145L29.68 19.72L154.96 19.72Z" fill="white"/>
<path d="M315.04 160.66C315.04 177.112 311.799 193.403 305.504 208.603C299.208 223.802 289.98 237.613 278.346 249.246C266.713 260.88 252.902 270.108 237.703 276.404C222.503 282.7 206.212 285.94 189.76 285.94L189.76 160.66H315.04Z" fill="#F35D5D"/>
<path d="M440.32 569.56C423.868 569.56 407.577 566.32 392.377 560.024C377.178 553.728 363.367 544.5 351.734 532.866C340.1 521.233 330.872 507.422 324.576 492.223C318.28 477.023 315.04 460.732 315.04 444.28L440.32 444.28L440.32 569.56Z" fill="#95D0D5"/>
<path d="M33.16 444.28C33.16 427.828 36.4004 411.537 42.6963 396.337C48.9923 381.138 58.2203 367.327 69.8536 355.694C81.487 344.06 95.2977 334.832 110.497 328.536C125.697 322.24 141.988 319 158.44 319L158.44 444.28L33.16 444.28Z" fill="#F35D5D"/>
<path d="M158.44 569.56C141.988 569.56 125.697 566.32 110.497 560.024C95.2978 553.728 81.487 544.5 69.8537 532.866C58.2204 521.233 48.9923 507.422 42.6964 492.223C36.4005 477.023 33.16 460.732 33.16 444.28L158.44 444.28L158.44 569.56Z" fill="white"/>
<path d="M440.32 305.08C440.32 321.532 437.08 337.823 430.784 353.023C424.488 368.222 415.26 382.033 403.626 393.666C391.993 405.3 378.182 414.528 362.983 420.824C347.783 427.12 331.492 430.36 315.04 430.36C298.588 430.36 282.297 427.12 267.097 420.824C251.898 414.528 238.087 405.3 226.454 393.666C214.82 382.033 205.592 368.222 199.296 353.023C193 337.823 189.76 321.532 189.76 305.08L315.04 305.08H440.32Z" fill="#71357C"/>
</svg>
